<?xml version="1.0" encoding="UTF-8"?>
<svg xmlns="http://www.w3.org/2000/svg" xmlns:xlink="http://www.w3.org/1999/xlink" width="4000" height="2500" viewBox="0 0 4000 2500">
<defs>
<linearGradient id="linear-pattern-0" gradientUnits="userSpaceOnUse" x1="0.000000000000000111" y1="0" x2="1" y2="0" gradientTransform="matrix(3250, -3250, 3250, 3250, 375, 2875)">
<stop offset="0" stop-color="rgb(85.496521%, 85.667419%, 85.554504%)" stop-opacity="1"/>
<stop offset="0.015625" stop-color="rgb(85.68573%, 85.719299%, 85.559082%)" stop-opacity="1"/>
<stop offset="0.03125" stop-color="rgb(86.068726%, 86.003113%, 85.809326%)" stop-opacity="1"/>
<stop offset="0.0625" stop-color="rgb(86.457825%, 86.468506%, 86.303711%)" stop-opacity="1"/>
<stop offset="0.078125" stop-color="rgb(86.839294%, 86.764526%, 86.57074%)" stop-opacity="1"/>
<stop offset="0.09375" stop-color="rgb(87.049866%, 87.002563%, 86.820984%)" stop-opacity="1"/>
<stop offset="0.109375" stop-color="rgb(87.243652%, 87.242126%, 87.078857%)" stop-opacity="1"/>
<stop offset="0.125" stop-color="rgb(87.442017%, 87.478638%, 87.330627%)" stop-opacity="1"/>
<stop offset="0.140625" stop-color="rgb(87.637329%, 87.718201%, 87.588501%)" stop-opacity="1"/>
<stop offset="0.15625" stop-color="rgb(87.998962%, 88.002014%, 87.846375%)" stop-opacity="1"/>
<stop offset="0.171875" stop-color="rgb(88.232422%, 88.40332%, 88.171387%)" stop-opacity="1"/>
<stop offset="0.1875" stop-color="rgb(88.42926%, 88.674927%, 88.439941%)" stop-opacity="1"/>
<stop offset="0.203125" stop-color="rgb(88.62915%, 88.91449%, 88.699341%)" stop-opacity="1"/>
<stop offset="0.21875" stop-color="rgb(88.825989%, 89.157104%, 88.957214%)" stop-opacity="1"/>
<stop offset="0.234375" stop-color="rgb(89.167786%, 89.299011%, 89.163208%)" stop-opacity="1"/>
<stop offset="0.25" stop-color="rgb(89.407349%, 89.506531%, 89.268494%)" stop-opacity="1"/>
<stop offset="0.265625" stop-color="rgb(89.604187%, 89.749146%, 89.486694%)" stop-opacity="1"/>
<stop offset="0.28125" stop-color="rgb(89.944458%, 90.031433%, 89.753723%)" stop-opacity="1"/>
<stop offset="0.296875" stop-color="rgb(90.197754%, 90.292358%, 90.0177%)" stop-opacity="1"/>
<stop offset="0.3125" stop-color="rgb(90.394592%, 90.534973%, 90.281677%)" stop-opacity="1"/>
<stop offset="0.328125" stop-color="rgb(90.596008%, 90.782166%, 90.545654%)" stop-opacity="1"/>
<stop offset="0.34375" stop-color="rgb(90.792847%, 91.02478%, 90.811157%)" stop-opacity="1"/>
<stop offset="0.359375" stop-color="rgb(91.120911%, 91.31012%, 91.079712%)" stop-opacity="1"/>
<stop offset="0.375" stop-color="rgb(91.389465%, 91.575623%, 91.349792%)" stop-opacity="1"/>
<stop offset="0.390625" stop-color="rgb(91.58783%, 91.824341%, 91.616821%)" stop-opacity="1"/>
<stop offset="0.40625" stop-color="rgb(91.899109%, 91.992188%, 91.841125%)" stop-opacity="1"/>
<stop offset="0.421875" stop-color="rgb(92.173767%, 92.189026%, 92.079163%)" stop-opacity="1"/>
<stop offset="0.4375" stop-color="rgb(92.372131%, 92.43927%, 92.350769%)" stop-opacity="1"/>
<stop offset="0.453125" stop-color="rgb(92.575073%, 92.686462%, 92.617798%)" stop-opacity="1"/>
<stop offset="0.46875" stop-color="rgb(92.774963%, 92.938232%, 92.892456%)" stop-opacity="1"/>
<stop offset="0.484375" stop-color="rgb(92.979431%, 93.186951%, 93.161011%)" stop-opacity="1"/>
<stop offset="0.5" stop-color="rgb(93.177795%, 93.438721%, 93.435669%)" stop-opacity="1"/>
<stop offset="0.515625" stop-color="rgb(93.476868%, 93.717957%, 93.710327%)" stop-opacity="1"/>
<stop offset="0.53125" stop-color="rgb(93.870544%, 94.029236%, 93.995667%)" stop-opacity="1"/>
<stop offset="0.546875" stop-color="rgb(94.17572%, 94.311523%, 94.271851%)" stop-opacity="1"/>
<stop offset="0.5625" stop-color="rgb(94.37561%, 94.566345%, 94.551086%)" stop-opacity="1"/>
<stop offset="0.578125" stop-color="rgb(94.664001%, 94.844055%, 94.828796%)" stop-opacity="1"/>
<stop offset="0.59375" stop-color="rgb(94.978333%, 95.133972%, 95.114136%)" stop-opacity="1"/>
<stop offset="0.609375" stop-color="rgb(95.179749%, 95.385742%, 95.388794%)" stop-opacity="1"/>
<stop offset="0.625" stop-color="rgb(95.46051%, 95.66803%, 95.675659%)" stop-opacity="1"/>
<stop offset="0.640625" stop-color="rgb(95.779419%, 95.887756%, 95.927429%)" stop-opacity="1"/>
<stop offset="0.65625" stop-color="rgb(95.973206%, 96.02356%, 96.156311%)" stop-opacity="1"/>
<stop offset="0.6875" stop-color="rgb(96.246338%, 96.362305%, 96.463013%)" stop-opacity="1"/>
<stop offset="0.71875" stop-color="rgb(96.646118%, 96.809387%, 96.868896%)" stop-opacity="1"/>
<stop offset="0.734375" stop-color="rgb(96.986389%, 97.111511%, 97.291565%)" stop-opacity="1"/>
<stop offset="0.75" stop-color="rgb(97.189331%, 97.369385%, 97.525024%)" stop-opacity="1"/>
<stop offset="0.765625" stop-color="rgb(97.396851%, 97.621155%, 97.666931%)" stop-opacity="1"/>
<stop offset="0.78125" stop-color="rgb(97.599792%, 97.88208%, 97.955322%)" stop-opacity="1"/>
<stop offset="0.8125" stop-color="rgb(97.845459%, 98.150635%, 98.236084%)" stop-opacity="1"/>
<stop offset="0.84375" stop-color="rgb(98.23761%, 98.472595%, 98.536682%)" stop-opacity="1"/>
<stop offset="0.859375" stop-color="rgb(98.603821%, 98.780823%, 98.826599%)" stop-opacity="1"/>
<stop offset="0.875" stop-color="rgb(98.808289%, 99.0448%, 99.119568%)" stop-opacity="1"/>
<stop offset="0.90625" stop-color="rgb(99.03717%, 99.308777%, 99.403381%)" stop-opacity="1"/>
<stop offset="0.9375" stop-color="rgb(99.430847%, 99.635315%, 99.708557%)" stop-opacity="1"/>
<stop offset="1" stop-color="rgb(99.816895%, 99.940491%, 99.987793%)" stop-opacity="1"/>
</linearGradient>
</defs>
<path fill-rule="nonzero" fill="url(#linear-pattern-0)" d="M -1250 1250 L 2000 4500 L 5250 1250 L 2000 -2000 Z M -1250 1250 "/>
<path fill-rule="nonzero" fill="rgb(50%, 83.677673%, 91.876221%)" fill-opacity="1" d="M 2058.238281 2845.070312 C 1942.898438 2845.070312 1834.851562 2815.53125 1744.859375 2755.5 L 1746.941406 2752.390625 C 1957.488281 2892.839844 2267.898438 2865.171875 2537.75 2681.890625 C 2786.800781 2512.730469 2917.921875 2264.101562 2871.78125 2048.488281 C 2843.660156 1917.050781 2754.628906 1801.039062 2607.160156 1703.671875 C 2439.121094 1592.71875 2198.359375 1508.941406 1891.570312 1454.679688 C 1399.320312 1367.621094 1155.328125 1270.550781 1145.671875 1157.929688 C 1133.570312 1016.960938 1502.320312 883.941406 1771.558594 786.808594 C 1924.039062 731.808594 2055.730469 684.300781 2052.589844 657.628906 C 2051.359375 647.210938 2028.191406 639.398438 1983.730469 634.410156 C 1927.378906 628.089844 1899.601562 616.988281 1896.320312 599.480469 C 1889.558594 563.449219 1994.988281 508.210938 2128.480469 438.269531 C 2333.039062 331.078125 2613.191406 184.28125 2595.46875 38.851562 C 2582.488281 -67.621094 2409.699219 -162.300781 2081.890625 -242.550781 L 2082.78125 -246.199219 C 2416.898438 -164.398438 2585.820312 -71.308594 2599.191406 38.390625 C 2617.230469 186.398438 2347.191406 327.898438 2130.210938 441.589844 C 2003.328125 508.070312 1893.761719 565.488281 1900 598.789062 C 1902.859375 614.011719 1931.171875 624.738281 1984.148438 630.691406 C 2031.878906 636.039062 2054.808594 644.460938 2056.308594 657.191406 C 2059.800781 686.820312 1939.429688 730.238281 1772.828125 790.339844 C 1504.730469 887.050781 1137.550781 1019.511719 1149.398438 1157.609375 C 1158.769531 1266.761719 1408.691406 1365.46875 1892.230469 1450.988281 C 2199.519531 1505.339844 2440.761719 1589.300781 2609.21875 1700.539062 C 2757.539062 1798.46875 2847.109375 1915.269531 2875.449219 2047.699219 C 2899.378906 2159.558594 2877.480469 2280.421875 2812.121094 2397.21875 C 2751.378906 2505.75 2657.230469 2605.269531 2539.859375 2684.988281 C 2383.910156 2790.910156 2214.410156 2845.070312 2058.238281 2845.070312 "/>
<path fill-rule="nonzero" fill="rgb(65.823364%, 66.419983%, 86.326599%)" fill-opacity="1" d="M 2026.589844 2873.730469 C 1913.640625 2873.730469 1810.121094 2843.050781 1724.03125 2783.539062 L 1726.160156 2780.449219 C 1965.25 2945.710938 2270.398438 2858.980469 2476.25 2722.710938 C 2740.058594 2548.058594 2879.75 2286.140625 2832.121094 2055.441406 C 2804.550781 1921.921875 2717.460938 1804.378906 2573.238281 1706.070312 C 2408.96875 1594.089844 2173.621094 1510.011719 1873.71875 1456.171875 C 1392.910156 1369.851562 1154.03125 1272.328125 1143.449219 1158.039062 C 1130.109375 1013.941406 1493.519531 876.199219 1758.878906 775.621094 C 1908.949219 718.75 2038.558594 669.621094 2035.140625 642.398438 C 2033.800781 631.839844 2011.140625 624.011719 1967.75 619.140625 C 1913.609375 613.070312 1885.628906 601.671875 1882.199219 584.289062 C 1874.96875 547.648438 1978.921875 490.691406 2110.53125 418.558594 C 2312.609375 307.820312 2589.359375 156.148438 2570.191406 7.21875 C 2556.320312 -100.558594 2387.328125 -195.761719 2067.929688 -275.710938 L 2068.839844 -279.351562 C 2394.410156 -197.851562 2559.621094 -104.269531 2573.910156 6.738281 C 2593.410156 158.210938 2326.660156 304.390625 2112.328125 421.851562 C 1987.21875 490.410156 1879.179688 549.621094 1885.878906 583.558594 C 1888.898438 598.910156 1916.589844 609.628906 1968.171875 615.410156 C 2014.769531 620.640625 2037.230469 629.070312 2038.859375 641.929688 C 2042.648438 672.078125 1924.179688 716.980469 1760.210938 779.128906 C 1495.980469 879.28125 1134.101562 1016.429688 1147.191406 1157.691406 C 1157.449219 1268.519531 1402.109375 1367.699219 1874.378906 1452.480469 C 2174.800781 1506.410156 2410.648438 1590.691406 2575.351562 1702.96875 C 2720.398438 1801.851562 2808.03125 1920.179688 2835.789062 2054.671875 C 2860.261719 2173.210938 2836.121094 2301.359375 2765.96875 2425.28125 C 2701.660156 2538.859375 2599.511719 2645.601562 2478.320312 2725.828125 C 2356.730469 2806.328125 2224.628906 2856.160156 2096.300781 2869.941406 C 2072.71875 2872.46875 2049.460938 2873.730469 2026.589844 2873.730469 "/>
<path fill-rule="nonzero" fill="rgb(40.010071%, 48.623657%, 77.827454%)" fill-opacity="1" d="M 1997.328125 2902.890625 C 1887.550781 2902.890625 1786.859375 2871.980469 1703.441406 2812.210938 L 1705.621094 2809.160156 C 1929.238281 2969.371094 2219.070312 2890.960938 2415.761719 2764.160156 C 2643.789062 2617.140625 2848.941406 2343.261719 2793.210938 2062.800781 C 2766.261719 1927.160156 2681.089844 1808.03125 2540.070312 1708.730469 C 2379.5 1595.660156 2149.410156 1511.21875 1856.199219 1457.769531 C 1386.691406 1372.179688 1152.839844 1274.210938 1141.300781 1158.25 C 1126.640625 1010.921875 1484.941406 868.351562 1746.558594 764.25 C 1894.261719 705.480469 2021.828125 654.71875 2018.101562 626.960938 C 2016.660156 616.25 1994.480469 608.421875 1952.171875 603.671875 C 1899.441406 597.75 1872.050781 586.378906 1868.429688 568.898438 C 1860.71875 531.640625 1963.238281 472.898438 2093.050781 398.53125 C 2292.71875 284.128906 2566.191406 127.449219 2545.511719 -25.050781 C 2530.710938 -134.101562 2365.46875 -229.789062 2054.371094 -309.449219 L 2055.300781 -313.078125 C 2372.429688 -231.878906 2533.988281 -137.828125 2549.21875 -25.550781 C 2570.238281 129.449219 2295.511719 286.859375 2094.910156 401.789062 C 1971.511719 472.488281 1864.941406 533.539062 1872.109375 568.140625 C 1875.308594 583.609375 1902.390625 594.308594 1952.589844 599.941406 C 1998.070312 605.050781 2020.070312 613.46875 2021.808594 626.460938 C 2025.929688 657.121094 1909.328125 703.519531 1747.949219 767.738281 C 1487.429688 871.390625 1130.648438 1013.359375 1145.03125 1157.878906 C 1156.21875 1270.359375 1395.71875 1370.019531 1856.878906 1454.078125 C 2150.621094 1507.628906 2381.210938 1592.28125 2542.230469 1705.660156 C 2684.058594 1805.539062 2769.75 1925.449219 2796.890625 2062.070312 C 2852.96875 2344.25 2646.890625 2619.609375 2417.789062 2767.308594 C 2300.449219 2842.960938 2174.609375 2888.921875 2053.890625 2900.21875 C 2034.800781 2902 2015.929688 2902.890625 1997.328125 2902.890625 "/>
<path fill-rule="nonzero" fill="rgb(55.732727%, 82.798767%, 93.327332%)" fill-opacity="1" d="M 1968.589844 2932.761719 C 1861.910156 2932.761719 1763.96875 2901.589844 1683.128906 2841.539062 L 1685.359375 2838.539062 C 1862.941406 2970.441406 2113.820312 2958.300781 2356.480469 2806.078125 C 2588.300781 2660.671875 2811.921875 2368.46875 2755.070312 2070.578125 C 2728.761719 1932.738281 2645.511719 1811.960938 2507.628906 1711.621094 C 2350.691406 1597.398438 2125.738281 1512.558594 1839.03125 1459.46875 C 1600.160156 1415.238281 1420.339844 1365.988281 1304.558594 1313.101562 C 1200.71875 1265.660156 1145.089844 1213.671875 1139.210938 1158.589844 C 1123.148438 1007.960938 1476.5 860.429688 1734.511719 752.710938 C 1879.921875 692 2005.5 639.570312 2001.460938 611.261719 C 1999.910156 600.421875 1978.210938 592.578125 1936.960938 587.949219 C 1885.640625 582.191406 1858.828125 570.851562 1855.019531 553.289062 C 1846.789062 515.398438 1947.941406 454.839844 2075.988281 378.179688 C 2273.359375 260.011719 2543.679688 98.160156 2521.410156 -58.011719 C 2505.691406 -168.300781 2344.128906 -264.460938 2041.21875 -343.820312 L 2042.171875 -347.449219 C 2350.96875 -266.539062 2508.941406 -172.039062 2525.128906 -58.539062 C 2547.738281 100.101562 2276.191406 262.679688 2077.921875 381.390625 C 1956.171875 454.28125 1851.03125 517.238281 1858.679688 552.488281 C 1862.070312 568.070312 1888.539062 578.738281 1937.378906 584.21875 C 1981.761719 589.199219 2003.300781 597.621094 2005.171875 610.730469 C 2009.628906 641.910156 1894.828125 689.839844 1735.960938 756.171875 C 1479.039062 863.441406 1127.179688 1010.339844 1142.941406 1158.191406 C 1155.109375 1272.300781 1389.53125 1372.421875 1839.710938 1455.78125 C 2126.980469 1508.980469 2352.441406 1594.03125 2509.839844 1708.578125 C 2648.511719 1809.511719 2732.269531 1931.070312 2758.75 2069.871094 C 2784.019531 2202.300781 2755.21875 2345.558594 2675.46875 2484.179688 C 2602.199219 2611.539062 2489.621094 2726.988281 2358.480469 2809.261719 C 2245.648438 2880.039062 2126.050781 2922.140625 2012.609375 2931.019531 C 1997.789062 2932.179688 1983.101562 2932.761719 1968.589844 2932.761719 "/>
<path fill-rule="nonzero" fill="rgb(64.624023%, 88.430786%, 93.887329%)" fill-opacity="1" d="M 1940.960938 2963.179688 C 1837.839844 2963.179688 1742.46875 2932.730469 1663.070312 2871.558594 L 1665.359375 2868.589844 C 1831.371094 2996.488281 2068.101562 2988.910156 2298.640625 2848.351562 C 2548.871094 2695.761719 2773.140625 2382.441406 2717.648438 2078.808594 C 2692.039062 1938.691406 2610.699219 1816.210938 2475.898438 1714.769531 C 2322.519531 1599.339844 2102.570312 1514.058594 1822.171875 1461.289062 C 1589.121094 1417.429688 1413.46875 1368.238281 1300.101562 1315.089844 C 1198.351562 1267.390625 1143.550781 1214.890625 1137.191406 1159.050781 C 1119.660156 1005.03125 1468.210938 852.429688 1722.710938 741.011719 C 1865.898438 678.320312 1989.550781 624.179688 1985.179688 595.308594 C 1983.511719 584.339844 1962.28125 576.488281 1922.070312 571.980469 C 1872.140625 566.378906 1845.921875 555.078125 1841.921875 537.449219 C 1833.160156 498.929688 1932.960938 436.519531 2059.320312 357.5 C 2254.5 235.449219 2521.789062 68.300781 2497.878906 -91.648438 C 2481.21875 -203.109375 2323.289062 -299.710938 2028.488281 -378.789062 L 2029.460938 -382.410156 C 2330.011719 -301.789062 2484.449219 -206.871094 2501.589844 -92.199219 C 2525.859375 70.171875 2257.371094 238.078125 2061.320312 360.679688 C 1941.171875 435.808594 1837.410156 500.699219 1845.570312 536.621094 C 1849.128906 552.28125 1875.011719 562.921875 1922.488281 568.261719 C 1965.78125 573.109375 1986.878906 581.53125 1988.890625 594.75 C 1993.691406 626.46875 1880.660156 675.949219 1724.21875 744.441406 C 1470.789062 855.398438 1123.699219 1007.351562 1140.921875 1158.628906 C 1154.078125 1274.339844 1383.53125 1374.929688 1822.859375 1457.609375 C 2103.839844 1510.480469 2324.308594 1595.988281 2478.160156 1711.769531 C 2613.730469 1813.800781 2695.550781 1937.058594 2721.339844 2078.128906 C 2746.851562 2217.710938 2715.691406 2368.730469 2631.21875 2514.878906 C 2553.488281 2649.371094 2436.070312 2768.941406 2300.589844 2851.550781 C 2178.75 2925.851562 2055.121094 2963.179688 1940.960938 2963.179688 "/>
<path fill-rule="nonzero" fill="rgb(69.200134%, 70.906067%, 85.658264%)" fill-opacity="1" d="M 1911.601562 2994.710938 C 1810.261719 2994.710938 1720.101562 2963.660156 1643.28125 2902.261719 L 1645.621094 2899.328125 C 1803.140625 3025.238281 2020.660156 3022.148438 2242.410156 2890.839844 C 2503.058594 2736.488281 2737.398438 2410.988281 2680.941406 2087.53125 C 2656.070312 1945.070312 2576.648438 1820.808594 2444.871094 1718.199219 C 2294.96875 1601.488281 2079.890625 1515.699219 1805.601562 1463.21875 C 1578.300781 1419.738281 1406.769531 1370.609375 1295.761719 1317.210938 C 1196.089844 1269.25 1142.070312 1216.25 1135.21875 1159.671875 C 1116.128906 1002.160156 1460.078125 844.339844 1711.21875 729.109375 C 1852.238281 664.410156 1974.019531 608.53125 1969.300781 579.089844 C 1967.511719 568 1946.75 560.148438 1907.570312 555.761719 C 1859.011719 550.308594 1833.371094 539.058594 1829.160156 521.371094 C 1819.859375 482.230469 1918.371094 417.910156 2043.089844 336.480469 C 2236.148438 210.441406 2500.539062 37.808594 2474.921875 -126.011719 C 2457.308594 -238.589844 2302.949219 -335.628906 2016.140625 -414.421875 L 2017.140625 -418.03125 C 2309.558594 -337.699219 2460.511719 -242.371094 2478.621094 -126.589844 C 2504.621094 39.628906 2239.050781 213.019531 2045.140625 339.621094 C 1926.539062 417.058594 1824.121094 483.929688 1832.808594 520.511719 C 1836.601562 536.46875 1861.191406 546.78125 1907.988281 552.03125 C 1950.199219 556.769531 1970.859375 565.179688 1973 578.5 C 1978.179688 610.75 1866.859375 661.828125 1712.78125 732.519531 C 1462.691406 847.269531 1120.179688 1004.429688 1138.941406 1159.21875 C 1153.148438 1276.5 1377.679688 1377.539062 1806.300781 1459.539062 C 2081.191406 1512.128906 2296.808594 1598.160156 2447.179688 1715.25 C 2579.710938 1818.441406 2659.601562 1943.480469 2684.628906 2086.890625 C 2710.261719 2233.71875 2676.738281 2392.589844 2587.679688 2546.332031 C 2505.578125 2688.070312 2383.640625 2811.558594 2244.320312 2894.058594 C 2141 2955.25 2033.578125 2989.878906 1933.660156 2994.230469 C 1926.25 2994.550781 1918.890625 2994.710938 1911.601562 2994.710938 "/>
<path fill-rule="nonzero" fill="rgb(66.897583%, 68.930054%, 84.725952%)" fill-opacity="1" d="M 1885.769531 3026.898438 C 1788.238281 3026.898438 1698.648438 2995.808594 1623.710938 2933.640625 L 1626.101562 2930.75 C 1773.421875 3052.980469 1978.199219 3053.949219 2187.949219 2933.449219 C 2451.699219 2781.941406 2701.488281 2437.199219 2644.941406 2096.761719 C 2608.511719 1877.539062 2430.511719 1590.019531 1789.351562 1465.25 C 1567.738281 1422.128906 1400.261719 1373.070312 1291.578125 1319.429688 C 1193.929688 1271.230469 1140.679688 1217.738281 1133.308594 1160.441406 C 1112.589844 999.351562 1452.078125 836.191406 1699.960938 717.050781 C 1838.890625 650.28125 1958.859375 592.621094 1953.769531 562.609375 C 1951.871094 551.410156 1931.558594 543.558594 1893.398438 539.269531 C 1846.199219 533.980469 1821.121094 522.789062 1816.71875 505.058594 C 1806.859375 465.289062 1904.109375 399.019531 2027.238281 315.121094 C 2218.28125 184.949219 2479.910156 6.679688 2452.5 -161.121094 C 2433.941406 -274.761719 2283.109375 -372.191406 2004.199219 -450.699219 L 2005.210938 -454.300781 C 2289.601562 -374.261719 2437.121094 -278.558594 2456.199219 -161.71875 C 2483.988281 8.441406 2221.21875 187.488281 2029.351562 318.21875 C 1912.261719 398.011719 1811.128906 466.921875 1820.359375 504.160156 C 1824.339844 520.179688 1848.371094 530.449219 1893.820312 535.550781 C 1934.960938 540.171875 1955.191406 548.558594 1957.46875 561.980469 C 1963.03125 594.78125 1853.371094 647.480469 1701.589844 720.429688 C 1454.730469 839.070312 1116.648438 1001.558594 1137.03125 1159.960938 C 1152.308594 1278.761719 1372.019531 1380.238281 1790.070312 1461.570312 C 2059.050781 1513.910156 2269.941406 1600.519531 2416.898438 1718.988281 C 2546.441406 1823.410156 2624.410156 1950.308594 2648.640625 2096.148438 C 2674.25 2250.320312 2638.378906 2417.109375 2544.910156 2578.46875 C 2459.808594 2725.378906 2330.390625 2855.949219 2189.820312 2936.710938 C 2085.148438 2996.839844 1981.621094 3026.898438 1885.769531 3026.898438 "/>
<path fill-rule="nonzero" fill="rgb(54.989624%, 73.381042%, 82.180786%)" fill-opacity="1" d="M 1859.160156 3059.308594 C 1763.988281 3059.308594 1676.730469 3028.070312 1604.378906 2965.761719 L 1606.828125 2962.921875 C 1744.640625 3081.621094 1937.300781 3086.441406 2135.378906 2976.140625 C 2411.621094 2822.339844 2664.539062 2455.011719 2609.621094 2106.519531 C 2574.488281 1883.53125 2400.890625 1591.640625 1773.410156 1467.410156 C 1557.398438 1424.648438 1393.929688 1375.648438 1287.539062 1321.78125 C 1191.878906 1273.339844 1139.371094 1219.359375 1131.46875 1161.359375 C 1109.019531 996.601562 1444.238281 827.929688 1689.011719 704.78125 C 1825.890625 635.910156 1944.101562 576.429688 1938.621094 545.851562 C 1936.601562 534.539062 1916.738281 526.699219 1879.589844 522.53125 C 1833.730469 517.390625 1809.210938 506.261719 1804.621094 488.5 C 1794.171875 448.109375 1890.210938 379.839844 2011.808594 293.398438 C 2200.898438 158.988281 2459.871094 -25.101562 2430.621094 -196.980469 C 2411.109375 -311.628906 2263.738281 -409.429688 1992.609375 -487.648438 L 1993.648438 -491.25 C 2270.128906 -411.488281 2414.269531 -315.441406 2434.320312 -197.609375 C 2463.960938 -23.398438 2203.878906 161.46875 2013.980469 296.460938 C 1898.320312 378.671875 1798.441406 449.671875 1808.25 487.558594 C 1812.398438 503.628906 1835.878906 513.851562 1880.011719 518.808594 C 1919.550781 523.238281 1939.929688 531.871094 1942.320312 545.191406 C 1948.28125 578.519531 1840.238281 632.878906 1690.691406 708.128906 C 1446.941406 830.769531 1113.101562 998.75 1135.179688 1160.851562 C 1151.558594 1281.140625 1366.539062 1383.039062 1774.140625 1463.730469 C 2037.398438 1515.851562 2243.699219 1603.089844 2387.308594 1723.019531 C 2513.898438 1828.75 2589.949219 1957.578125 2613.328125 2105.941406 C 2668.5 2456.039062 2414.570312 2824.988281 2137.210938 2979.421875 C 2041.46875 3032.730469 1946.949219 3059.308594 1859.160156 3059.308594 "/>
<path fill-rule="nonzero" fill="rgb(66.252136%, 66.786194%, 86.488342%)" fill-opacity="1" d="M 1831.898438 3093.191406 C 1829.480469 3093.191406 1827.089844 3093.160156 1824.679688 3093.121094 C 1734.078125 3091.449219 1653.53125 3059.648438 1585.269531 2998.589844 L 1587.769531 2995.789062 C 1718.660156 3112.878906 1895.171875 3121.078125 2084.769531 3018.871094 C 2362.800781 2869 2629.28125 2481.519531 2574.988281 2116.839844 C 2541.210938 1889.921875 2372.011719 1593.441406 1757.761719 1469.671875 C 1547.300781 1427.269531 1387.78125 1378.339844 1283.640625 1324.25 C 1189.929688 1275.570312 1138.128906 1221.140625 1129.691406 1162.449219 C 1105.441406 993.921875 1436.550781 819.601562 1678.308594 692.320312 C 1813.210938 621.289062 1929.710938 559.960938 1923.828125 528.808594 C 1921.679688 517.410156 1902.261719 509.570312 1866.109375 505.519531 C 1821.578125 500.519531 1797.609375 489.460938 1792.820312 471.691406 C 1781.78125 430.671875 1876.640625 360.351562 1996.75 271.320312 C 2184 132.53125 2440.429688 -57.558594 2409.28125 -233.640625 C 2388.828125 -349.230469 2244.878906 -447.359375 1981.441406 -525.300781 L 1982.5 -528.898438 C 2251.148438 -449.410156 2391.960938 -353.050781 2412.96875 -234.289062 C 2444.53125 -55.929688 2187.019531 134.960938 1998.988281 274.328125 C 1884.730469 359.019531 1786.058594 432.171875 1796.441406 470.71875 C 1800.78125 486.820312 1823.699219 496.980469 1866.53125 501.789062 C 1905.039062 506.109375 1924.988281 514.71875 1927.519531 528.109375 C 1933.910156 561.980469 1827.429688 618.039062 1680.050781 695.628906 C 1439.28125 822.398438 1109.53125 996.011719 1133.398438 1161.921875 C 1150.910156 1283.640625 1361.230469 1385.949219 1758.5 1466 C 2016.238281 1517.929688 2218.070312 1605.859375 2358.390625 1727.351562 C 2482.101562 1834.449219 2556.21875 1965.308594 2578.699219 2116.289062 C 2603.5 2282.871094 2561.96875 2470.5 2461.769531 2644.601562 C 2368.808594 2806.121094 2232.039062 2943.738281 2086.550781 3022.171875 C 2000.230469 3068.699219 1912.351562 3093.191406 1831.898438 3093.191406 "/>
<path fill-rule="nonzero" fill="rgb(44.630432%, 56.10199%, 81.942749%)" fill-opacity="1" d="M 1806.699219 3127.828125 C 1716.730469 3127.828125 1634.898438 3095.828125 1566.398438 3032.160156 L 1568.949219 3029.421875 C 1691.539062 3143.339844 1857.460938 3154.78125 2036.160156 3061.628906 C 2322.21875 2912.5 2593.351562 2501.691406 2541 2127.808594 C 2508.660156 1896.78125 2343.859375 1595.46875 1742.378906 1472.070312 C 1537.410156 1430.011719 1381.789062 1381.160156 1279.871094 1326.859375 C 1188.078125 1277.960938 1136.96875 1223.078125 1127.96875 1163.730469 C 1101.828125 991.339844 1428.980469 811.191406 1667.851562 679.648438 C 1800.828125 606.429688 1915.679688 543.191406 1909.378906 511.460938 C 1907.109375 499.980469 1888.121094 492.160156 1852.960938 488.210938 C 1809.738281 483.359375 1786.308594 472.371094 1781.339844 454.628906 C 1769.679688 412.980469 1863.410156 340.558594 1982.089844 248.859375 C 2167.558594 105.558594 2421.578125 -90.710938 2388.460938 -271.070312 C 2367.070312 -387.539062 2226.5 -485.96875 1970.628906 -563.628906 L 1971.710938 -567.210938 C 2229.039062 -489.121094 2370.488281 -389.710938 2392.148438 -271.75 C 2425.679688 -89.140625 2170.609375 107.929688 1984.378906 251.828125 C 1866.820312 342.660156 1773.96875 414.410156 1784.949219 453.621094 C 1789.460938 469.71875 1811.851562 479.820312 1853.378906 484.480469 C 1890.871094 488.691406 1910.390625 497.28125 1913.058594 510.730469 C 1919.890625 545.148438 1814.929688 602.941406 1669.660156 682.941406 C 1431.761719 813.941406 1105.929688 993.359375 1131.679688 1163.171875 C 1150.351562 1286.28125 1356.070312 1388.980469 1743.140625 1468.398438 C 1995.539062 1520.191406 2193.039062 1608.878906 2330.140625 1732.03125 C 2451 1840.601562 2523.199219 1973.578125 2544.71875 2127.300781 C 2569.070312 2301.21875 2525.28125 2496.988281 2421.421875 2678.558594 C 2324.839844 2847.398438 2185.050781 2988.238281 2037.890625 3064.960938 C 1957.359375 3106.941406 1879.371094 3127.828125 1806.699219 3127.828125 "/>
<path fill-rule="nonzero" fill="rgb(34.413147%, 46.450806%, 76.6922%)" fill-opacity="1" d="M 1781.589844 3162.761719 C 1693.75 3162.761719 1614 3130.5 1547.71875 3066.480469 L 1550.328125 3063.78125 C 1665.21875 3174.75 1821.199219 3189.199219 1989.519531 3104.441406 C 2281.53125 2957.390625 2559.421875 2534.539062 2507.671875 2139.421875 C 2476.851562 1904.078125 2316.449219 1597.691406 1727.308594 1474.550781 C 1527.75 1432.839844 1375.980469 1384.058594 1276.238281 1329.589844 C 1186.328125 1280.488281 1135.898438 1225.179688 1126.328125 1165.199219 C 1098.210938 988.851562 1421.550781 802.710938 1657.640625 666.800781 C 1788.761719 591.320312 1902.011719 526.128906 1895.28125 493.820312 C 1892.871094 482.261719 1874.320312 474.449219 1840.128906 470.609375 C 1798.191406 465.910156 1775.308594 455.011719 1770.148438 437.289062 C 1757.859375 395.039062 1850.5 320.460938 1967.78125 226.039062 C 2151.578125 78.070312 2403.300781 -124.578125 2368.160156 -309.351562 C 2345.859375 -426.621094 2208.609375 -525.308594 1960.21875 -602.671875 L 1961.328125 -606.25 C 2211.148438 -528.441406 2349.261719 -428.78125 2371.839844 -310.050781 C 2407.398438 -123.070312 2154.671875 80.398438 1970.128906 228.960938 C 1853.941406 322.511719 1762.160156 396.390625 1773.75 436.25 C 1778.441406 452.351562 1800.28125 462.371094 1840.550781 466.890625 C 1877.03125 470.980469 1896.140625 479.539062 1898.949219 493.058594 C 1906.230469 528.019531 1802.738281 587.601562 1659.511719 670.050781 C 1424.359375 805.421875 1102.320312 990.808594 1130.03125 1164.609375 C 1149.878906 1289.039062 1351.089844 1392.078125 1728.070312 1470.878906 C 1975.328125 1522.558594 2168.609375 1612.101562 2302.550781 1737.019531 C 2420.621094 1847.140625 2490.890625 1982.371094 2511.390625 2138.941406 C 2535.128906 2320.210938 2489.140625 2524.101562 2381.898438 2713.070312 C 2281.929688 2889.230469 2139.53125 3033.101562 1991.210938 3107.789062 C 1918.289062 3144.5 1847.648438 3162.761719 1781.589844 3162.761719 "/>
<path fill-rule="nonzero" fill="rgb(45.986938%, 56.954956%, 82.354736%)" fill-opacity="1" d="M 1756.949219 3198.550781 C 1671.171875 3198.550781 1593.429688 3166.011719 1529.25 3101.558594 L 1531.898438 3098.921875 C 1639.691406 3207.148438 1786.351562 3224.328125 1944.878906 3147.308594 C 2235.75 3006 2524.988281 2562.378906 2474.980469 2151.738281 C 2445.769531 1911.878906 2289.769531 1600.128906 1712.519531 1477.171875 C 1518.300781 1435.800781 1370.328125 1387.109375 1272.730469 1332.460938 C 1184.679688 1283.171875 1134.890625 1227.449219 1124.75 1166.859375 C 1094.558594 986.449219 1414.261719 794.140625 1647.699219 653.71875 C 1777.019531 575.941406 1888.699219 508.761719 1881.519531 475.878906 C 1878.988281 464.261719 1860.851562 456.46875 1827.628906 452.75 C 1786.96875 448.191406 1764.609375 437.378906 1759.28125 419.710938 C 1746.339844 376.839844 1837.921875 300.039062 1953.871094 202.808594 C 2136.050781 50.03125 2385.558594 -159.210938 2348.339844 -348.480469 C 2325.148438 -466.46875 2191.179688 -565.378906 1950.160156 -642.449219 L 1951.300781 -646.019531 C 2193.71875 -568.5 2328.539062 -468.640625 2352.019531 -349.199219 C 2389.671875 -157.761719 2139.179688 52.300781 1956.28125 205.691406 C 1841.390625 302.03125 1750.648438 378.121094 1762.871094 418.628906 C 1767.71875 434.699219 1789.039062 444.640625 1828.050781 449.019531 C 1863.539062 453 1882.230469 461.53125 1885.191406 475.078125 C 1892.941406 510.589844 1790.878906 571.96875 1649.628906 656.941406 C 1417.121094 796.800781 1098.679688 988.351562 1128.449219 1166.238281 C 1149.488281 1291.941406 1346.261719 1395.308594 1713.300781 1473.5 C 1955.589844 1525.109375 2144.78125 1615.570312 2275.609375 1742.371094 C 2390.941406 1854.148438 2459.269531 1991.71875 2478.699219 2151.289062 C 2528.898438 2563.480469 2238.53125 3008.820312 1946.519531 3150.691406 C 1880.699219 3182.671875 1816.859375 3198.550781 1756.949219 3198.550781 "/>
<path fill-rule="nonzero" fill="rgb(36.839294%, 71.109009%, 91.111755%)" fill-opacity="1" d="M 1732.75 3235.21875 C 1648.988281 3235.21875 1573.148438 3202.351562 1510.980469 3137.421875 L 1513.691406 3134.828125 C 1614.878906 3240.511719 1752.839844 3260.210938 1902.148438 3190.308594 C 2050.691406 3120.769531 2196.441406 2971.941406 2302.050781 2781.980469 C 2414.820312 2579.140625 2464.828125 2359.960938 2442.878906 2164.820312 C 2415.371094 1920.191406 2263.800781 1602.78125 1697.980469 1479.898438 C 1509.050781 1438.871094 1364.839844 1390.28125 1269.351562 1335.480469 C 1183.128906 1286.011719 1133.980469 1229.910156 1123.25 1168.738281 C 1090.898438 984.160156 1407.121094 785.488281 1638.011719 640.421875 C 1770.839844 556.980469 1875.75 491.058594 1868.101562 457.609375 C 1865.441406 445.941406 1847.71875 438.191406 1815.449219 434.558594 C 1776.039062 430.140625 1754.210938 419.441406 1748.710938 401.839844 C 1735.121094 358.359375 1825.671875 279.300781 1940.308594 179.199219 C 2120.96875 21.460938 2368.378906 -194.570312 2329.039062 -388.460938 C 2304.960938 -507.109375 2174.230469 -606.199219 1940.480469 -682.980469 L 1941.648438 -686.550781 C 2176.78125 -609.308594 2308.351562 -509.269531 2332.710938 -389.210938 C 2372.488281 -193.179688 2124.121094 23.679688 1942.78125 182.019531 C 1829.160156 281.21875 1739.421875 359.578125 1752.289062 400.71875 C 1757.300781 416.75 1778.101562 426.601562 1815.871094 430.839844 C 1850.371094 434.710938 1868.660156 443.199219 1871.761719 456.78125 C 1879.988281 492.820312 1779.328125 556.070312 1640.011719 643.601562 C 1410.019531 788.101562 1095.019531 985.988281 1126.949219 1168.101562 C 1149.191406 1294.988281 1341.578125 1398.660156 1698.78125 1476.238281 C 1936.300781 1527.820312 2121.519531 1619.289062 2249.300781 1748.101562 C 2361.929688 1861.628906 2428.308594 2001.699219 2446.609375 2164.398438 C 2468.648438 2360.308594 2418.46875 2580.289062 2305.328125 2783.800781 C 2199.351562 2974.441406 2052.980469 3123.839844 1903.738281 3193.710938 C 1844.46875 3221.460938 1786.949219 3235.21875 1732.75 3235.21875 "/>
<path fill-rule="nonzero" fill="rgb(47.467041%, 58.538818%, 83.161926%)" fill-opacity="1" d="M 1707.441406 3273.601562 C 1626.410156 3273.601562 1553.800781 3240.25 1492.921875 3174.089844 L 1495.671875 3171.550781 C 1617.550781 3303.980469 1761.761719 3278.328125 1861.269531 3233.5 C 2007.410156 3167.648438 2158.308594 3012.421875 2264.929688 2818.25 C 2380.230469 2608.28125 2432.238281 2381.148438 2411.390625 2178.691406 C 2385.660156 1929.039062 2238.539062 1605.648438 1683.710938 1482.75 C 1500.011719 1442.058594 1359.5 1393.578125 1266.089844 1338.648438 C 1181.671875 1289.011719 1133.128906 1232.558594 1121.820312 1170.851562 C 1087.210938 981.988281 1400.109375 776.761719 1628.578125 626.898438 C 1759.628906 540.941406 1863.140625 473.050781 1855.019531 439.03125 C 1852.230469 427.320312 1834.921875 419.601562 1803.589844 416.089844 C 1765.429688 411.808594 1744.121094 401.210938 1738.449219 383.691406 C 1724.179688 339.609375 1813.75 258.210938 1927.148438 155.148438 C 2106.339844 -7.699219 2351.738281 -230.730469 2310.230469 -429.339844 C 2285.300781 -548.558594 2157.769531 -647.789062 1931.160156 -724.269531 L 1932.359375 -727.828125 C 2160.320312 -650.890625 2288.691406 -550.71875 2313.898438 -430.109375 C 2355.851562 -229.398438 2109.53125 -5.53125 1929.671875 157.929688 C 1817.269531 260.078125 1728.5 340.761719 1742.019531 382.53125 C 1747.179688 398.5 1767.460938 408.261719 1804.011719 412.359375 C 1837.539062 416.121094 1855.421875 424.558594 1858.671875 438.160156 C 1867.398438 474.738281 1768.089844 539.878906 1630.640625 630.039062 C 1403.039062 779.320312 1091.351562 983.761719 1125.511719 1170.179688 C 1148.96875 1298.179688 1337.050781 1402.121094 1684.519531 1479.089844 C 1917.460938 1530.679688 2098.839844 1623.25 2223.628906 1754.210938 C 2333.589844 1869.621094 2398.019531 2012.308594 2415.121094 2178.308594 C 2436.050781 2381.519531 2383.878906 2609.429688 2268.21875 2820.058594 C 2161.21875 3014.910156 2009.660156 3170.75 1862.808594 3236.921875 C 1808.449219 3261.410156 1756.398438 3273.601562 1707.441406 3273.601562 "/>
<path fill-rule="nonzero" fill="rgb(44.630432%, 56.10199%, 81.942749%)" fill-opacity="1" d="M 1683.921875 3311.980469 C 1604.78125 3311.980469 1534 3278.289062 1475 3211.570312 L 1477.808594 3209.089844 C 1568.570312 3311.710938 1687.648438 3335.160156 1822.160156 3276.910156 C 2115.308594 3149.96875 2423.050781 2649.03125 2380.46875 2193.441406 C 2356.640625 1938.480469 2213.988281 1608.730469 1669.710938 1485.710938 C 1491.171875 1445.351562 1354.308594 1396.988281 1262.949219 1341.960938 C 1180.308594 1292.179688 1132.371094 1235.398438 1120.46875 1173.179688 C 1083.511719 979.949219 1393.230469 767.949219 1619.378906 613.160156 C 1748.71875 524.628906 1850.878906 454.699219 1842.261719 420.121094 C 1839.328125 408.378906 1822.441406 400.699219 1792.039062 397.289062 C 1755.089844 393.148438 1734.300781 382.671875 1728.46875 365.25 C 1713.53125 320.578125 1802.140625 236.789062 1914.328125 130.699219 C 2092.121094 -37.421875 2335.621094 -267.679688 2291.890625 -471.109375 C 2266.148438 -590.839844 2141.769531 -690.179688 1922.179688 -766.359375 L 1923.410156 -769.910156 C 2144.308594 -693.261719 2269.519531 -593 2295.550781 -471.898438 C 2339.730469 -266.410156 2095.351562 -35.308594 1916.898438 133.429688 C 1805.691406 238.601562 1717.839844 321.671875 1732.03125 364.058594 C 1737.339844 379.949219 1757.109375 389.601562 1792.460938 393.570312 C 1825.03125 397.21875 1842.511719 405.609375 1845.898438 419.210938 C 1855.148438 456.320312 1757.140625 523.410156 1621.5 616.25 C 1396.199219 770.460938 1087.648438 981.660156 1124.148438 1172.480469 C 1148.828125 1301.519531 1332.660156 1405.679688 1670.539062 1482.050781 C 1899.078125 1533.710938 2076.730469 1627.46875 2198.570312 1760.738281 C 2305.910156 1878.148438 2368.359375 2023.609375 2384.199219 2193.089844 C 2426.921875 2650.210938 2117.949219 3152.910156 1823.648438 3280.351562 C 1774.878906 3301.46875 1728.089844 3311.980469 1683.921875 3311.980469 "/>
<path fill-rule="nonzero" fill="rgb(36.621094%, 43.405151%, 74.801636%)" fill-opacity="1" d="M 1660.78125 3351.25 C 1583.480469 3351.25 1514.480469 3317.191406 1457.28125 3249.859375 L 1460.140625 3247.421875 C 1545.601562 3348.03125 1657.851562 3373.351562 1784.738281 3320.621094 C 1929.378906 3260.511719 2081.980469 3100.53125 2192.960938 2892.691406 C 2310.738281 2672.121094 2368.019531 2422.980469 2350.109375 2209.148438 C 2328.289062 1948.570312 2190.148438 1612.058594 1655.96875 1488.800781 C 1482.519531 1448.78125 1349.28125 1400.550781 1259.941406 1345.449219 C 1179.039062 1295.539062 1131.679688 1238.460938 1119.191406 1175.78125 C 1079.800781 978.070312 1386.480469 759.089844 1610.398438 599.199219 C 1738.089844 508.019531 1838.949219 436.011719 1829.820312 400.859375 C 1826.761719 389.101562 1810.269531 381.46875 1780.789062 378.160156 C 1745.039062 374.148438 1724.761719 363.789062 1718.78125 346.5 C 1703.148438 301.261719 1790.839844 215.011719 1901.859375 105.808594 C 2078.328125 -67.761719 2320.019531 -305.46875 2274.039062 -513.828125 C 2247.53125 -633.96875 2126.261719 -733.359375 1913.601562 -809.238281 L 1914.859375 -812.769531 C 2128.820312 -736.429688 2250.898438 -636.121094 2277.699219 -514.628906 C 2324.128906 -304.25 2081.589844 -65.699219 1904.488281 108.480469 C 1794.410156 216.75 1707.460938 302.269531 1722.328125 345.269531 C 1727.78125 361.058594 1747.039062 370.601562 1781.210938 374.441406 C 1812.828125 377.980469 1829.910156 386.320312 1833.449219 399.910156 C 1843.230469 437.558594 1746.480469 506.640625 1612.578125 602.25 C 1389.488281 761.550781 1083.949219 979.710938 1122.871094 1175.050781 C 1148.769531 1305.039062 1328.421875 1409.378906 1656.808594 1485.148438 C 1881.140625 1536.910156 2055.191406 1631.980469 2174.128906 1767.730469 C 2278.878906 1887.28125 2339.351562 2035.691406 2353.851562 2208.839844 C 2372.078125 2426.519531 2316.121094 2670.011719 2196.269531 2894.460938 C 2084.898438 3103.039062 1931.589844 3263.648438 1786.179688 3324.078125 C 1742.511719 3342.230469 1700.539062 3351.25 1660.78125 3351.25 "/>
<path fill-rule="nonzero" fill="rgb(35.775757%, 47.714233%, 77.416992%)" fill-opacity="1" d="M 1637.960938 3391.449219 C 1562.480469 3391.449219 1495.199219 3356.988281 1439.738281 3289 L 1442.640625 3286.628906 C 1523.210938 3385.421875 1629.101562 3412.398438 1748.890625 3364.710938 C 1892.289062 3307.601562 2045.238281 3145.449219 2158.03125 2930.949219 C 2277.46875 2703.78125 2336.609375 2446.789062 2320.28125 2225.871094 C 2300.578125 1959.308594 2166.988281 1615.621094 1642.46875 1492.019531 C 1474.050781 1452.328125 1344.359375 1404.238281 1257.019531 1349.078125 C 1177.839844 1299.070312 1131.058594 1241.710938 1117.988281 1178.609375 C 1076.078125 976.308594 1379.859375 750.128906 1601.671875 584.980469 C 1727.75 491.109375 1827.339844 416.960938 1817.679688 381.261719 C 1814.511719 369.511719 1798.410156 361.921875 1769.839844 358.71875 C 1735.269531 354.839844 1715.488281 344.609375 1709.371094 327.449219 C 1693.039062 281.640625 1779.851562 192.871094 1889.75 80.480469 C 2064.949219 -98.699219 2304.910156 -344.089844 2256.660156 -557.480469 C 2229.410156 -677.96875 2111.21875 -777.371094 1905.359375 -852.941406 L 1906.648438 -856.460938 C 2113.78125 -780.429688 2232.769531 -680.109375 2260.320312 -558.308594 C 2309.019531 -342.929688 2068.238281 -96.691406 1892.429688 83.101562 C 1783.441406 194.558594 1697.359375 282.589844 1712.898438 326.191406 C 1718.488281 341.871094 1737.25 351.289062 1770.261719 354.988281 C 1800.941406 358.429688 1817.628906 366.710938 1821.300781 380.28125 C 1831.628906 418.441406 1736.109375 489.558594 1603.910156 587.988281 C 1382.910156 752.53125 1080.230469 977.878906 1121.660156 1177.851562 C 1148.769531 1308.71875 1324.289062 1413.191406 1643.328125 1488.371094 C 1863.628906 1540.28125 2034.191406 1636.78125 2150.28125 1775.179688 C 2252.480469 1897.019531 2310.941406 2048.558594 2324.019531 2225.601562 C 2340.398438 2447.191406 2281.109375 2704.921875 2161.339844 2932.699219 C 2048.160156 3147.960938 1894.488281 3310.761719 1750.269531 3368.199219 C 1711.261719 3383.730469 1673.691406 3391.449219 1637.960938 3391.449219 "/>
<path fill-rule="nonzero" fill="rgb(36.839294%, 71.109009%, 91.111755%)" fill-opacity="1" d="M 1615.46875 3432.578125 C 1541.730469 3432.578125 1476.128906 3397.699219 1422.339844 3329 L 1425.289062 3326.679688 C 1501.328125 3423.808594 1601.351562 3452.359375 1714.539062 3409.21875 C 1856.441406 3355.148438 2009.421875 3190.941406 2123.761719 2969.96875 C 2244.621094 2736.378906 2305.558594 2471.667969 2290.980469 2243.710938 C 2273.511719 1970.789062 2144.53125 1619.410156 1629.199219 1495.339844 C 1465.738281 1455.988281 1339.578125 1408.058594 1254.210938 1352.871094 C 1176.730469 1302.78125 1130.53125 1245.199219 1116.871094 1181.710938 C 1072.351562 974.730469 1373.359375 741.121094 1593.148438 570.550781 C 1717.691406 473.898438 1816.058594 397.558594 1805.859375 361.300781 C 1802.558594 349.558594 1786.851562 342.039062 1759.179688 338.929688 C 1725.769531 335.179688 1706.488281 325.089844 1700.238281 308.089844 C 1683.199219 261.71875 1769.148438 170.359375 1877.96875 54.691406 C 2051.96875 -130.269531 2290.269531 -383.570312 2239.71875 -602.078125 C 2211.789062 -722.820312 2096.628906 -822.199219 1897.441406 -897.449219 L 1898.769531 -900.949219 C 2099.199219 -825.230469 2215.140625 -724.960938 2243.371094 -602.929688 C 2294.378906 -382.460938 2055.28125 -128.308594 1880.699219 57.261719 C 1772.769531 171.988281 1687.519531 262.601562 1703.761719 306.800781 C 1709.46875 322.339844 1727.730469 331.628906 1759.601562 335.210938 C 1789.351562 338.539062 1805.660156 346.75 1809.46875 360.289062 C 1820.351562 398.96875 1726.011719 472.179688 1595.449219 573.511719 C 1376.449219 743.46875 1076.511719 976.25 1120.539062 1180.921875 C 1148.851562 1312.558594 1320.28125 1417.121094 1630.070312 1491.699219 C 1846.550781 1543.808594 2013.738281 1641.859375 2127.019531 1783.121094 C 2226.710938 1907.429688 2283.128906 2062.308594 2294.71875 2243.46875 C 2309.351562 2472.089844 2248.25 2737.519531 2127.089844 2971.691406 C 2012.339844 3193.460938 1858.609375 3358.339844 1715.878906 3412.730469 C 1681.078125 3425.980469 1647.5 3432.578125 1615.46875 3432.578125 "/>
<path fill-rule="nonzero" fill="rgb(55.06134%, 61.857605%, 84.552002%)" fill-opacity="1" d="M 1593.269531 3474.628906 C 1521.25 3474.628906 1457.261719 3439.308594 1405.101562 3369.859375 L 1408.101562 3367.601562 C 1479.941406 3463.25 1574.511719 3493.210938 1681.570312 3454.230469 C 1821.71875 3403.21875 1974.441406 3237.078125 2090.101562 3009.789062 C 2212.121094 2769.988281 2274.839844 2497.699219 2262.160156 2262.738281 C 2247.070312 1983.039062 2122.75 1623.460938 1616.171875 1498.808594 C 1457.609375 1459.800781 1334.921875 1412.03125 1251.5 1356.839844 C 1175.699219 1306.699219 1130.050781 1248.910156 1115.828125 1185.078125 C 1068.609375 973.308594 1367 732.019531 1584.871094 555.839844 C 1707.910156 456.351562 1805.089844 377.761719 1794.351562 340.960938 C 1790.878906 329.089844 1775.988281 321.839844 1748.820312 318.789062 C 1716.539062 315.171875 1697.75 305.21875 1691.390625 288.398438 C 1673.648438 241.488281 1758.769531 147.488281 1866.53125 28.46875 C 2039.390625 -162.449219 2276.140625 -423.921875 2223.269531 -647.671875 C 2194.699219 -768.589844 2082.539062 -867.898438 1889.910156 -942.828125 L 1891.261719 -946.328125 C 2085.121094 -870.921875 2198.050781 -770.730469 2226.921875 -648.53125 C 2280.238281 -422.859375 2042.730469 -160.550781 1869.308594 30.980469 C 1762.410156 149.050781 1677.96875 242.308594 1694.898438 287.070312 C 1700.71875 302.460938 1718.488281 311.609375 1749.238281 315.058594 C 1778.070312 318.300781 1794.011719 326.429688 1797.949219 339.910156 C 1809.390625 379.109375 1711.351562 458.378906 1587.230469 558.761719 C 1370.121094 734.320312 1072.78125 974.761719 1119.488281 1184.269531 C 1148.980469 1316.578125 1316.390625 1421.179688 1617.058594 1495.171875 C 1829.890625 1547.539062 1993.839844 1647.28125 2104.351562 1791.621094 C 2201.539062 1918.570312 2255.898438 2077.011719 2265.910156 2262.539062 C 2278.621094 2498.140625 2215.761719 2771.121094 2093.441406 3011.488281 C 1977.359375 3239.601562 1823.871094 3406.429688 1682.851562 3457.761719 C 1651.878906 3469.03125 1621.929688 3474.628906 1593.269531 3474.628906 "/>
<path fill-rule="nonzero" fill="rgb(54.493713%, 85.134888%, 92.428589%)" fill-opacity="1" d="M 1571.339844 3517.640625 C 1501 3517.640625 1438.601562 3481.859375 1388.011719 3411.621094 L 1391.050781 3409.441406 C 1458.988281 3503.738281 1548.5 3534.96875 1649.898438 3499.808594 C 1788.070312 3451.851562 1940.269531 3283.878906 2057.019531 3050.488281 C 2179.96875 2804.699219 2244.410156 2524.988281 2233.820312 2283.078125 C 2221.25 1996.140625 2101.679688 1627.769531 1603.398438 1502.390625 C 1310.230469 1428.628906 1145.871094 1323.101562 1114.859375 1188.730469 C 1064.878906 972.058594 1360.761719 722.839844 1576.808594 540.871094 C 1698.398438 438.46875 1794.429688 357.578125 1783.121094 320.25 C 1779.539062 308.421875 1765.019531 301.238281 1738.738281 298.289062 C 1707.578125 294.789062 1689.289062 285.011719 1682.808594 268.371094 C 1664.359375 220.941406 1748.679688 124.210938 1855.429688 1.75 C 2027.210938 -195.300781 2262.449219 -465.171875 2207.269531 -694.25 C 2178.109375 -815.269531 2068.898438 -914.46875 1882.691406 -989.070312 L 1884.078125 -992.550781 C 2071.488281 -917.46875 2181.449219 -817.398438 2210.910156 -695.128906 C 2266.550781 -464.171875 2030.570312 -193.460938 1858.261719 4.210938 C 1752.339844 125.71875 1668.679688 221.699219 1686.308594 267.011719 C 1692.230469 282.21875 1709.519531 291.238281 1739.160156 294.558594 C 1767.089844 297.699219 1782.648438 305.738281 1786.710938 319.160156 C 1798.730469 358.859375 1701.871094 440.441406 1579.230469 543.738281 C 1363.921875 725.089844 1069.050781 973.449219 1118.519531 1187.878906 C 1149.179688 1320.78125 1312.621094 1425.371094 1604.308594 1498.761719 C 1813.691406 1551.441406 1974.488281 1653.03125 2082.261719 1800.691406 C 2176.988281 1930.488281 2229.238281 2092.730469 2237.570312 2282.910156 C 2248.191406 2525.441406 2183.601562 2805.820312 2060.371094 3052.171875 C 1943.191406 3286.421875 1790.199219 3455.078125 1651.128906 3503.351562 C 1623.609375 3512.898438 1596.941406 3517.640625 1571.339844 3517.640625 "/>
<path fill-rule="nonzero" fill="rgb(60.572815%, 76.664734%, 84.310913%)" fill-opacity="1" d="M 1549.691406 3561.609375 C 1480.980469 3561.609375 1420.128906 3525.339844 1371.058594 3454.28125 L 1374.148438 3452.160156 C 1438.46875 3545.289062 1523.269531 3577.730469 1619.421875 3545.988281 C 1893.25 3455.558594 2224.28125 2853.078125 2205.898438 2304.871094 C 2196.019531 2010.160156 2081.289062 1632.359375 1590.820312 1506.109375 C 1306.539062 1432.941406 1146.101562 1327.480469 1113.96875 1192.660156 C 1061.128906 970.988281 1354.660156 713.578125 1568.988281 525.640625 C 1689.160156 420.25 1784.089844 337.011719 1772.210938 299.160156 C 1768.511719 287.390625 1754.371094 280.289062 1728.960938 277.429688 C 1698.890625 274.058594 1681.078125 264.429688 1674.511719 248 C 1655.339844 200.070312 1738.890625 100.550781 1844.671875 -25.441406 C 2015.398438 -228.808594 2249.21875 -507.328125 2191.71875 -741.828125 C 2162.03125 -862.890625 2055.75 -961.941406 1875.808594 -1036.210938 L 1877.238281 -1039.679688 C 2058.339844 -964.921875 2165.371094 -865.011719 2195.359375 -742.730469 C 2253.308594 -506.378906 2018.78125 -227.011719 1847.539062 -23.03125 C 1742.570312 102 1659.660156 200.761719 1677.988281 246.609375 C 1684 261.640625 1700.808594 270.5 1729.378906 273.710938 C 1756.421875 276.738281 1771.601562 284.699219 1775.789062 298.039062 C 1788.398438 338.21875 1692.660156 422.171875 1571.460938 528.460938 C 1357.851562 715.769531 1065.300781 972.320312 1117.621094 1191.789062 C 1149.398438 1325.148438 1308.929688 1429.679688 1591.75 1502.480469 C 1797.871094 1555.53125 1955.648438 1659.140625 2060.71875 1810.410156 C 2153 1943.269531 2203.101562 2109.589844 2209.648438 2304.738281 C 2218.011719 2554.128906 2151.738281 2841.730469 2027.828125 3093.789062 C 1909.769531 3333.949219 1757.53125 3504.328125 1620.589844 3549.550781 C 1596.199219 3557.609375 1572.5 3561.609375 1549.691406 3561.609375 "/>
<path fill-rule="nonzero" fill="rgb(50.802612%, 72.654724%, 90.679932%)" fill-opacity="1" d="M 1528.289062 3606.558594 C 1461.191406 3606.558594 1401.839844 3569.78125 1354.25 3497.871094 L 1357.378906 3495.800781 C 1418.339844 3587.910156 1498.800781 3621.460938 1590.058594 3592.851562 C 1723.710938 3550.929688 1874.121094 3379.699219 1992.410156 3134.800781 C 2116.539062 2877.820312 2184.328125 2583.832031 2178.410156 2328.21875 C 2171.390625 2025.179688 2061.601562 1637.21875 1578.480469 1509.960938 C 1302.960938 1437.378906 1146.410156 1332.050781 1113.171875 1196.878906 C 1057.410156 970.121094 1348.679688 704.28125 1561.351562 510.160156 C 1680.171875 401.710938 1774.019531 316.050781 1761.558594 277.691406 C 1757.761719 265.988281 1743.980469 258.96875 1719.421875 256.210938 C 1690.429688 252.960938 1673.101562 243.5 1666.449219 227.289062 C 1646.578125 178.871094 1729.378906 76.488281 1834.21875 -53.128906 C 2003.96875 -263 2236.441406 -550.429688 2176.628906 -790.441406 C 2146.46875 -911.441406 2043.070312 -1010.289062 1869.300781 -1084.230469 L 1870.769531 -1087.679688 C 2045.679688 -1013.261719 2149.808594 -913.558594 2180.269531 -791.339844 C 2240.53125 -549.519531 2007.378906 -261.261719 1837.140625 -50.78125 C 1733.078125 77.878906 1650.890625 179.5 1669.921875 225.871094 C 1676 240.691406 1692.328125 249.398438 1719.839844 252.488281 C 1746.019531 255.421875 1760.828125 263.289062 1765.128906 276.53125 C 1778.339844 317.191406 1688.378906 399.300781 1563.878906 512.929688 C 1351.898438 706.410156 1061.578125 971.390625 1116.808594 1195.988281 C 1149.699219 1329.71875 1305.351562 1434.128906 1579.441406 1506.328125 C 1782.5 1559.820312 1937.371094 1665.628906 2039.738281 1820.800781 C 2129.601562 1956.980469 2177.511719 2127.671875 2182.160156 2328.140625 C 2188.089844 2584.320312 2120.160156 2878.929688 1995.789062 3136.429688 C 1877.058594 3382.238281 1725.800781 3554.210938 1591.191406 3596.421875 C 1569.589844 3603.199219 1548.589844 3606.558594 1528.289062 3606.558594 "/>
<path fill-rule="nonzero" fill="rgb(36.915588%, 79.711914%, 96.043396%)" fill-opacity="1" d="M 1507.140625 3652.519531 C 1441.589844 3652.519531 1383.71875 3615.210938 1337.570312 3542.410156 L 1340.738281 3540.398438 C 1399.398438 3632.929688 1473.75 3666.570312 1561.738281 3640.441406 C 1692.878906 3601.460938 1842.058594 3428.800781 1960.808594 3178.570312 C 2085.199219 2916.449219 2154.621094 2615.660156 2151.289062 2353.308594 C 2145.671875 1912.25 1937.941406 1614.148438 1566.351562 1513.929688 C 1299.460938 1441.949219 1146.738281 1336.800781 1112.441406 1201.398438 C 1053.699219 969.460938 1342.828125 694.890625 1553.941406 494.398438 C 1671.449219 382.808594 1764.269531 294.660156 1751.230469 255.800781 C 1747.328125 244.179688 1733.910156 237.238281 1710.199219 234.578125 C 1682.238281 231.449219 1665.390625 222.160156 1658.660156 206.191406 C 1638.078125 157.300781 1720.171875 51.980469 1824.101562 -81.351562 C 1992.898438 -297.921875 2224.078125 -594.5 2161.988281 -840.109375 C 2131.421875 -961.011719 2030.859375 -1059.628906 1863.109375 -1133.230469 L 1864.621094 -1136.660156 C 2033.480469 -1062.578125 2134.761719 -963.109375 2165.621094 -841.039062 C 2228.171875 -593.640625 1996.339844 -296.21875 1827.058594 -79.050781 C 1723.890625 53.320312 1642.390625 157.871094 1662.121094 204.730469 C 1668.269531 219.339844 1684.128906 227.890625 1710.621094 230.859375 C 1735.921875 233.699219 1750.371094 241.460938 1754.78125 254.601562 C 1768.589844 295.730469 1679.640625 380.210938 1556.519531 497.121094 C 1346.078125 696.96875 1057.871094 970.671875 1116.078125 1200.480469 C 1150.019531 1334.460938 1301.839844 1438.710938 1567.328125 1510.308594 C 1767.53125 1564.308594 1919.601562 1672.519531 2019.320312 1831.929688 C 2106.75 1971.710938 2152.410156 2147.109375 2155.03125 2353.261719 C 2158.378906 2616.160156 2088.820312 2917.558594 1964.199219 3180.171875 C 1845 3431.351562 1694.949219 3604.761719 1562.808594 3644.03125 C 1543.730469 3649.699219 1525.140625 3652.519531 1507.140625 3652.519531 "/>
<path fill-rule="nonzero" fill="rgb(66.333008%, 88.963318%, 93.661499%)" fill-opacity="1" d="M 1486.230469 3699.488281 C 1422.210938 3699.488281 1365.78125 3661.628906 1321.019531 3587.910156 L 1324.230469 3585.96875 C 1379.941406 3677.738281 1450.648438 3712.328125 1534.371094 3688.808594 C 1662.851562 3652.710938 1810.609375 3478.78125 1929.621094 3223.53125 C 2054.058594 2956.628906 2125.089844 2649.269531 2124.511719 2380.28125 C 2123.511719 1925.53125 1921.070312 1619.320312 1554.460938 1518.039062 C 1296.050781 1446.660156 1147.121094 1341.738281 1111.808594 1206.210938 C 1050.011719 968.980469 1337.121094 685.410156 1546.761719 478.339844 C 1662.988281 363.539062 1754.800781 272.859375 1741.160156 233.519531 C 1737.171875 222.011719 1724.101562 215.171875 1701.21875 212.601562 C 1674.300781 209.578125 1657.910156 200.46875 1651.128906 184.75 C 1629.851562 135.421875 1711.25 27.089844 1814.300781 -110.050781 C 1982.210938 -333.488281 2212.160156 -639.511719 2147.800781 -890.808594 C 2116.890625 -1011.519531 2019.128906 -1109.871094 1857.261719 -1183.128906 L 1858.808594 -1186.539062 C 2021.769531 -1112.800781 2120.21875 -1013.609375 2151.429688 -891.738281 C 2216.238281 -638.691406 1985.660156 -331.851562 1817.300781 -107.800781 C 1714.980469 28.371094 1634.148438 135.929688 1654.578125 183.269531 C 1660.78125 197.640625 1676.171875 206.019531 1701.640625 208.871094 C 1726.101562 211.621094 1740.191406 219.28125 1744.699219 232.289062 C 1759.121094 273.871094 1671.148438 360.761719 1549.390625 481.011719 C 1340.410156 687.429688 1054.191406 970.128906 1115.441406 1205.261719 C 1150.390625 1339.410156 1298.429688 1443.421875 1555.460938 1514.429688 C 1753 1569 1902.371094 1679.828125 1999.441406 1843.859375 C 2084.449219 1987.53125 2127.789062 2168 2128.261719 2380.269531 C 2128.839844 2649.800781 2057.679688 2957.730469 1933.019531 3225.109375 C 1813.550781 3481.328125 1664.910156 3656.03125 1535.390625 3692.421875 C 1518.578125 3697.140625 1502.171875 3699.488281 1486.230469 3699.488281 "/>
<path fill-rule="nonzero" fill="rgb(45.986938%, 56.954956%, 82.354736%)" fill-opacity="1" d="M 1465.53125 3747.480469 C 1403 3747.480469 1347.960938 3709.058594 1304.578125 3634.390625 L 1307.820312 3632.5 C 1360.769531 3723.640625 1428.070312 3759.148438 1507.871094 3738 C 1633.558594 3704.699219 1779.691406 3529.671875 1898.761719 3269.78125 C 2023.058594 2998.5 2095.679688 2684.878906 2098.011719 2409.351562 C 2101.980469 1939.800781 1904.789062 1624.769531 1542.761719 1522.289062 C 1292.691406 1451.5 1147.511719 1346.878906 1111.238281 1211.328125 C 1046.339844 968.730469 1331.539062 675.851562 1539.78125 462 C 1654.789062 343.898438 1745.621094 250.621094 1731.390625 210.808594 C 1727.308594 199.421875 1714.609375 192.679688 1692.539062 190.199219 C 1666.621094 187.289062 1650.699219 178.371094 1643.871094 162.921875 C 1621.890625 113.160156 1702.621094 1.761719 1804.828125 -139.289062 C 1971.871094 -369.789062 2200.640625 -685.488281 2134.058594 -942.578125 C 2102.859375 -1063.050781 2007.871094 -1161.109375 1851.730469 -1234.03125 L 1853.320312 -1237.429688 C 2010.519531 -1164.011719 2106.199219 -1065.128906 2137.691406 -943.519531 C 2204.71875 -684.71875 1975.339844 -368.199219 1807.859375 -137.089844 C 1706.359375 2.980469 1626.191406 113.609375 1647.300781 161.398438 C 1653.539062 175.53125 1668.480469 183.730469 1692.960938 186.480469 C 1716.589844 189.128906 1730.308594 196.671875 1734.921875 209.550781 C 1749.941406 251.558594 1662.921875 340.929688 1542.46875 464.621094 C 1334.851562 677.820312 1050.511719 969.820312 1114.859375 1210.359375 C 1150.761719 1344.550781 1295.070312 1448.28125 1543.78125 1518.679688 C 1738.878906 1573.910156 1885.671875 1687.628906 1980.070312 1856.691406 C 2062.671875 2004.601562 2103.609375 2190.550781 2101.761719 2409.378906 C 2099.421875 2685.429688 2026.671875 2999.601562 1902.171875 3271.339844 C 1782.640625 3532.238281 1635.589844 3708.039062 1508.828125 3741.621094 C 1494.050781 3745.539062 1479.601562 3747.480469 1465.53125 3747.480469 "/>
<path fill-rule="nonzero" fill="rgb(59.370422%, 60.714722%, 83.71582%)" fill-opacity="1" d="M 1443.820312 3796.71875 C 1382.878906 3796.71875 1330.671875 3758.238281 1288.21875 3681.859375 L 1291.488281 3680.039062 C 1341.878906 3770.671875 1406.019531 3807.019531 1482.160156 3788.050781 C 1604.949219 3757.46875 1749.269531 3581.53125 1868.230469 3317.398438 C 1992.171875 3042.179688 2066.359375 2722.628906 2071.761719 2440.679688 C 2081.058594 1955.109375 1889.109375 1630.511719 1531.25 1526.671875 C 1289.390625 1456.488281 1147.910156 1352.210938 1110.738281 1216.75 C 1042.691406 968.710938 1326.070312 666.238281 1532.988281 445.390625 C 1646.800781 323.898438 1736.699219 227.949219 1721.859375 187.699219 C 1717.710938 176.429688 1705.351562 169.789062 1684.089844 167.410156 C 1659.140625 164.609375 1643.679688 155.871094 1636.820312 140.699219 C 1614.160156 90.539062 1694.238281 -24.019531 1795.640625 -169.058594 C 1961.871094 -406.828125 2189.519531 -732.46875 2120.769531 -995.429688 C 2089.351562 -1115.589844 1997.089844 -1213.320312 1846.550781 -1285.890625 L 1848.171875 -1289.269531 C 1999.75 -1216.199219 2092.691406 -1117.648438 2124.398438 -996.371094 C 2193.589844 -731.75 1965.359375 -405.28125 1798.710938 -166.910156 C 1698 -22.851562 1618.449219 90.941406 1640.238281 139.148438 C 1646.511719 153.019531 1660.988281 161.039062 1684.511719 163.679688 C 1707.320312 166.238281 1720.691406 173.671875 1725.378906 186.398438 C 1741.019531 228.828125 1654.910156 320.738281 1535.71875 447.949219 C 1329.410156 668.160156 1046.859375 969.730469 1114.359375 1215.761719 C 1151.148438 1349.878906 1291.769531 1453.269531 1532.300781 1523.070312 C 1725.160156 1579.03125 1869.46875 1695.910156 1961.21875 1870.460938 C 2041.390625 2022.96875 2079.839844 2214.851562 2075.511719 2440.75 C 2070.101562 2723.191406 1995.789062 3043.269531 1871.648438 3318.941406 C 1752.230469 3584.101562 1606.960938 3760.828125 1483.058594 3791.691406 C 1469.609375 3795.039062 1456.519531 3796.71875 1443.820312 3796.71875 "/>
<path fill-rule="nonzero" fill="rgb(68.89801%, 89.810181%, 94.27948%)" fill-opacity="1" d="M 1423.609375 3846.789062 C 1364.019531 3846.789062 1313.128906 3807.78125 1271.980469 3730.339844 L 1275.289062 3728.589844 C 1323.261719 3818.828125 1384.460938 3855.980469 1457.199219 3839.019531 C 1576.96875 3811.070312 1719.300781 3634.449219 1837.941406 3366.570312 C 1961.328125 3087.941406 2037.058594 2762.851562 2045.699219 2474.667969 C 2060.789062 1971.640625 1874.078125 1636.570312 1519.960938 1531.191406 C 1286.148438 1461.609375 1148.328125 1357.738281 1110.328125 1222.480469 C 1039.078125 968.890625 1320.75 656.519531 1526.410156 428.441406 C 1639.078125 303.5 1728.070312 204.808594 1712.628906 164.109375 C 1708.410156 152.988281 1696.398438 146.46875 1675.921875 144.171875 C 1651.929688 141.480469 1636.921875 132.929688 1630.039062 118.039062 C 1606.699219 67.511719 1686.160156 -50.28125 1786.769531 -199.410156 C 1952.21875 -444.640625 2178.800781 -780.488281 2107.929688 -1049.390625 C 2076.351562 -1169.199219 1986.769531 -1266.570312 1841.679688 -1338.800781 L 1843.351562 -1342.160156 C 1989.449219 -1269.421875 2079.691406 -1171.25 2111.558594 -1050.339844 C 2182.851562 -779.800781 1955.71875 -443.128906 1789.878906 -197.308594 C 1689.929688 -49.160156 1610.980469 67.851562 1633.449219 116.46875 C 1639.730469 130.070312 1653.761719 137.910156 1676.339844 140.441406 C 1698.351562 142.910156 1711.371094 150.21875 1716.140625 162.78125 C 1732.390625 205.621094 1647.160156 300.140625 1529.191406 430.960938 C 1324.109375 658.390625 1043.25 969.859375 1113.941406 1221.460938 C 1151.570312 1355.410156 1288.539062 1458.398438 1521.03125 1527.589844 C 1711.890625 1584.390625 1853.820312 1704.75 1942.890625 1885.328125 C 2020.601562 2042.898438 2056.449219 2241.21875 2049.449219 2474.78125 C 2040.789062 2763.429688 1964.949219 3089.039062 1841.371094 3368.089844 C 1722.261719 3637.039062 1578.960938 3814.449219 1458.050781 3842.671875 C 1446.269531 3845.421875 1434.789062 3846.789062 1423.609375 3846.789062 "/>
<path fill-rule="nonzero" fill="rgb(45.755005%, 57.48291%, 82.662964%)" fill-opacity="1" d="M 1403.601562 3897.96875 C 1345.320312 3897.96875 1295.71875 3858.378906 1255.839844 3779.878906 L 1259.179688 3778.179688 C 1304.898438 3868.171875 1363.359375 3906.109375 1432.929688 3890.949219 C 1549.570312 3865.519531 1689.730469 3688.488281 1807.859375 3417.378906 C 1930.5 3135.921875 2007.738281 2805.738281 2019.769531 2511.511719 C 2032.140625 2209.160156 1982.210938 1680.359375 1508.859375 1535.828125 C 1282.949219 1466.859375 1148.75 1363.460938 1109.980469 1228.511719 C 1035.511719 969.308594 1315.550781 646.75 1520.03125 411.21875 C 1631.589844 282.71875 1719.710938 181.230469 1703.671875 140.121094 C 1699.390625 129.148438 1687.71875 122.738281 1668.011719 120.53125 C 1644.941406 117.941406 1630.378906 109.589844 1623.5 95 C 1599.480469 44.101562 1678.359375 -77 1778.210938 -230.328125 C 1942.898438 -483.199219 2168.460938 -829.519531 2095.539062 -1104.429688 C 2063.871094 -1223.828125 1976.929688 -1320.808594 1837.140625 -1392.699219 L 1838.851562 -1396.03125 C 1979.628906 -1323.640625 2067.210938 -1225.859375 2099.160156 -1105.390625 C 2172.511719 -828.871094 1946.429688 -481.738281 1781.359375 -228.28125 C 1682.140625 -75.929688 1603.769531 44.390625 1626.890625 93.398438 C 1633.171875 106.71875 1646.761719 114.371094 1668.429688 116.808594 C 1689.660156 119.191406 1702.328125 126.371094 1707.160156 138.761719 C 1724.019531 181.96875 1639.640625 279.171875 1522.859375 413.679688 C 1318.949219 648.558594 1039.679688 970.238281 1113.578125 1227.46875 C 1151.980469 1361.128906 1285.339844 1463.671875 1509.949219 1532.25 C 1699.039062 1589.980469 1838.699219 1714.179688 1925.050781 1901.390625 C 2000.28125 2064.480469 2033.410156 2269.808594 2023.519531 2511.660156 C 2011.46875 2806.339844 1934.109375 3137.011719 1811.289062 3418.878906 C 1692.691406 3691.089844 1551.539062 3868.929688 1433.71875 3894.609375 C 1423.441406 3896.851562 1413.398438 3897.96875 1403.601562 3897.96875 "/>
<path fill-rule="nonzero" fill="rgb(67.578125%, 89.385986%, 94.198608%)" fill-opacity="1" d="M 1383.78125 3950.25 C 1326.78125 3950.25 1278.441406 3910.078125 1239.800781 3830.460938 L 1243.171875 3828.820312 C 1286.769531 3918.660156 1342.628906 3957.371094 1409.28125 3943.859375 C 1522.679688 3920.871094 1660.5 3743.71875 1777.929688 3469.96875 C 1899.609375 3186.328125 1978.320312 2851.558594 1993.890625 2551.519531 C 2010.210938 2237.140625 1967.46875 1687.761719 1497.949219 1540.628906 C 1279.789062 1472.269531 1149.160156 1369.378906 1109.691406 1234.828125 C 1031.980469 969.941406 1310.5 636.851562 1513.871094 393.640625 C 1624.339844 261.519531 1711.601562 157.160156 1694.96875 115.671875 C 1690.640625 104.871094 1679.308594 98.589844 1660.351562 96.460938 C 1638.199219 93.96875 1624.078125 85.820312 1617.210938 71.539062 C 1592.539062 20.320312 1670.839844 -104.171875 1769.960938 -261.78125 C 1933.929688 -522.5 2158.5 -879.558594 2083.609375 -1160.578125 C 2051.898438 -1279.53125 1967.558594 -1376.121094 1832.921875 -1447.671875 L 1834.679688 -1450.980469 C 1970.28125 -1378.921875 2055.25 -1281.539062 2087.230469 -1161.550781 C 2162.539062 -878.949219 1937.46875 -521.089844 1773.128906 -259.789062 C 1674.628906 -103.160156 1596.820312 20.558594 1620.578125 69.910156 C 1626.859375 82.941406 1640 90.410156 1660.769531 92.738281 C 1681.230469 95.03125 1693.558594 102.078125 1698.449219 114.28125 C 1715.921875 157.851562 1632.371094 257.761719 1516.738281 396.039062 C 1313.921875 638.609375 1036.148438 970.808594 1113.289062 1233.78125 C 1152.390625 1367.050781 1282.179688 1469.089844 1499.078125 1537.058594 C 1686.628906 1595.828125 1824.109375 1724.25 1907.699219 1918.761719 C 1980.390625 2087.929688 2010.648438 2300.878906 1997.640625 2551.710938 C 1982.039062 2852.179688 1903.21875 3187.410156 1781.371094 3471.449219 C 1663.460938 3746.328125 1524.628906 3924.300781 1410.019531 3947.53125 C 1401.078125 3949.351562 1392.328125 3950.25 1383.78125 3950.25 "/>
<path fill-rule="nonzero" fill="rgb(68.89801%, 89.810181%, 94.27948%)" fill-opacity="1" d="M 1364.128906 4003.671875 C 1308.371094 4003.671875 1261.261719 3962.898438 1223.828125 3882.121094 L 1227.238281 3880.550781 C 1268.839844 3970.339844 1322.320312 4009.769531 1386.210938 3997.808594 C 1496.28125 3977.148438 1631.558594 3800.230469 1748.089844 3524.539062 C 1868.578125 3239.460938 1948.730469 2900.710938 1967.96875 2595.167969 C 1988.609375 2267.589844 1953.589844 1695.648438 1487.230469 1545.578125 C 1276.671875 1477.820312 1149.570312 1375.511719 1109.480469 1241.480469 C 1028.519531 970.839844 1305.578125 626.910156 1507.878906 375.78125 C 1617.320312 239.921875 1703.769531 132.609375 1686.53125 90.738281 C 1682.160156 80.121094 1671.179688 73.960938 1652.949219 71.910156 C 1631.96875 69.558594 1617.890625 61.378906 1611.128906 47.601562 C 1585.828125 -3.910156 1663.570312 -131.871094 1761.988281 -293.859375 C 1925.269531 -562.621094 2148.898438 -930.699219 2072.121094 -1217.890625 C 2040.449219 -1336.339844 1958.671875 -1432.511719 1829.039062 -1503.71875 L 1830.839844 -1507.011719 C 1961.398438 -1435.289062 2043.800781 -1338.339844 2075.738281 -1218.859375 C 2152.941406 -930.121094 1928.828125 -561.25 1765.191406 -291.910156 C 1667.371094 -130.898438 1590.101562 -3.71875 1614.488281 45.949219 C 1620.75 58.679688 1633.460938 65.949219 1653.371094 68.191406 C 1673.078125 70.398438 1685.058594 77.308594 1690 89.308594 C 1708.078125 133.230469 1625.328125 235.960938 1510.800781 378.128906 C 1309.019531 628.609375 1032.679688 971.660156 1113.070312 1240.410156 C 1152.789062 1373.179688 1279.058594 1474.648438 1488.371094 1542.011719 C 1957.160156 1692.851562 1992.421875 2266.75 1971.710938 2595.410156 C 1952.441406 2901.351562 1872.191406 3240.539062 1751.539062 3526 C 1634.519531 3802.851562 1498.210938 3980.609375 1386.898438 4001.488281 C 1379.160156 4002.949219 1371.570312 4003.671875 1364.128906 4003.671875 "/>
<path fill-rule="nonzero" fill="rgb(68.701172%, 78.564453%, 92.297363%)" fill-opacity="1" d="M 1344.621094 4058.25 C 1290.078125 4058.25 1244.171875 4016.859375 1207.921875 3934.898438 L 1211.351562 3933.378906 C 1251.089844 4023.238281 1302.320312 4063.410156 1363.640625 4052.820312 C 1470.289062 4034.390625 1602.859375 3858.078125 1718.269531 3581.191406 C 1837.359375 3295.5 1918.871094 2953.46875 1941.921875 2642.800781 C 1967.289062 2300.738281 1940.589844 1704 1476.691406 1550.671875 C 1273.558594 1483.519531 1149.960938 1381.828125 1109.320312 1248.421875 C 1025.101562 971.949219 1300.789062 616.851562 1502.101562 357.558594 C 1610.53125 217.898438 1696.179688 107.578125 1678.359375 65.371094 C 1673.949219 54.929688 1663.300781 48.910156 1645.789062 46.949219 C 1625.648438 44.691406 1612.019531 36.71875 1605.289062 23.261719 C 1579.359375 -28.53125 1656.570312 -160.03125 1754.320312 -326.53125 C 1916.941406 -603.53125 2139.671875 -982.890625 2061.089844 -1276.328125 C 2029.511719 -1394.261719 1950.230469 -1490 1825.460938 -1560.878906 L 1827.308594 -1564.140625 C 1952.988281 -1492.738281 2032.859375 -1396.238281 2064.710938 -1277.300781 C 2143.691406 -982.351562 1920.511719 -602.199219 1757.550781 -324.628906 C 1660.378906 -159.121094 1583.628906 -28.390625 1608.640625 21.578125 C 1614.859375 34 1627.148438 41.078125 1646.210938 43.21875 C 1664.921875 45.320312 1676.898438 52.28125 1681.808594 63.910156 C 1700.480469 108.140625 1618.511719 213.730469 1505.058594 359.859375 C 1304.261719 618.5 1029.25 972.71875 1112.898438 1247.328125 C 1153.171875 1379.511719 1275.960938 1480.371094 1477.859375 1547.101562 C 1944.191406 1701.238281 1971.109375 2299.929688 1945.660156 2643.078125 C 1922.578125 2954.128906 1840.96875 3296.589844 1721.730469 3582.640625 C 1605.820312 3860.710938 1472.199219 4037.859375 1364.28125 4056.519531 C 1357.609375 4057.671875 1351.050781 4058.25 1344.621094 4058.25 "/>
</svg>
